<svg fill="none" xmlns="http://www.w3.org/2000/svg" viewBox="0 0 24 25">
  <rect y=".5" width="24" height="24" rx="12" fill="#1F8B48" />
  <path fill-rule="evenodd" clip-rule="evenodd"
    d="M15.333 11.667h-2.5v-2.5a.833.833 0 1 0-1.666 0V12.5c0 .46.373.833.833.833h3.333a.833.833 0 1 0 0-1.666ZM12 19.167A6.674 6.674 0 0 1 5.333 12.5 6.674 6.674 0 0 1 12 5.833a6.675 6.675 0 0 1 6.667 6.667A6.674 6.674 0 0 1 12 19.167Zm0-15c-4.595 0-8.333 3.738-8.333 8.333 0 4.595 3.738 8.333 8.333 8.333 4.595 0 8.333-3.738 8.333-8.333 0-4.595-3.738-8.333-8.333-8.333Z"
    fill="#fff" />
</svg>