<svg fill="none" xmlns="http://www.w3.org/2000/svg" viewBox="0 0 130 36">
  <path
    d="M54.253 9.771c-4.465 0-8.095 3.627-8.095 8.088 0 4.462 3.63 8.088 8.095 8.088 4.466 0 8.096-3.626 8.096-8.088 0-4.46-3.63-8.088-8.096-8.088Zm0 14.548c-3.565 0-6.465-2.898-6.465-6.46 0-3.561 2.9-6.46 6.465-6.46s6.466 2.899 6.466 6.46c0 3.562-2.9 6.46-6.466 6.46ZM88.317 9.771c-4.465 0-8.095 3.627-8.095 8.088 0 4.462 3.63 8.088 8.095 8.088 4.466 0 8.096-3.626 8.096-8.088 0-4.46-3.63-8.088-8.096-8.088Zm0 14.548c-3.565 0-6.465-2.898-6.465-6.46 0-3.561 2.9-6.46 6.465-6.46s6.466 2.899 6.466 6.46c0 3.562-2.9 6.46-6.466 6.46ZM76.53 10.72a8.057 8.057 0 0 0-8.963 1.697c-3.157 3.155-3.157 8.284 0 11.438a8.087 8.087 0 0 0 8.768 1.78.812.812 0 0 0 .448-1.059.816.816 0 0 0-1.063-.448 6.462 6.462 0 0 1-7.004-1.42 6.46 6.46 0 0 1 0-9.134 6.433 6.433 0 0 1 7.159-1.356.813.813 0 1 0 .652-1.49l.004-.008ZM112.277 25.13V10.585a.816.816 0 0 0-.814-.815.816.816 0 0 0-.815.814V22.48l-8.369-12.35a.813.813 0 0 0-1.487.456v14.548c0 .448.367.814.815.814a.817.817 0 0 0 .815-.814V13.24l8.368 12.346a.782.782 0 0 0 .163.171c.033.024.065.049.102.07.016.011.037.02.053.028.041.02.082.032.122.044.017.005.033.013.045.017.057.012.118.02.179.02a.69.69 0 0 0 .208-.032c.016-.005.033-.008.049-.017a.795.795 0 0 0 .196-.093c.004 0 .008-.008.012-.008a.615.615 0 0 0 .11-.094c.02-.02.032-.04.053-.061l.049-.061a.661.661 0 0 0 .04-.073c.013-.025.025-.045.037-.07.012-.024.016-.052.025-.081.008-.024.016-.045.02-.07.008-.052.016-.101.016-.154l.008.008ZM129.181 9.771h-11.257a.817.817 0 0 0-.815.814c0 .448.367.815.815.815h4.816v13.733c0 .448.367.814.815.814a.817.817 0 0 0 .815-.814V11.4h4.815a.817.817 0 0 0 .815-.815.817.817 0 0 0-.815-.814h-.004ZM39.916 20.106c2-.777 3.427-2.715 3.427-4.982a5.357 5.357 0 0 0-5.354-5.349h-5.316a.817.817 0 0 0-.815.814v14.548c0 .448.366.814.814.814a.817.817 0 0 0 .815-.814v-4.66h4.502c.07 0 .135-.009.204-.013l3.663 5.406a.82.82 0 0 0 1.132.22.817.817 0 0 0 .22-1.132l-3.283-4.848-.009-.004ZM33.483 11.4h4.502a3.726 3.726 0 0 1 3.724 3.72c0 2.052-1.67 3.721-3.724 3.721h-4.502V11.4ZM23.187 12.87 1.357.123C.755-.229 0 .213 0 .916v25.493c0 .703.754 1.145 1.358.792l21.826-12.746a.921.921 0 0 0 0-1.586h.003ZM2.874 30.308l9.531 5.568c.604.353 1.358-.088 1.358-.792V23.951c0-.704-.754-1.145-1.357-.792l-9.532 5.568a.921.921 0 0 0 0 1.586v-.005Z"
    fill="#1F8B48" />
</svg>