<svg fill="none" xmlns="http://www.w3.org/2000/svg" viewBox="0 0 24 25">
  <rect y=".5" width="24" height="24" rx="12" fill="#1F8B48" />
  <path fill-rule="evenodd" clip-rule="evenodd"
    d="M17.833 17.5H6.167a.834.834 0 0 1-.834-.833V8.542l6.167 4.625a.829.829 0 0 0 1 0l6.167-4.625v8.125c0 .46-.375.833-.834.833Zm-.555-10L12 11.458 6.723 7.5h10.555Zm.555-1.667H6.167a2.503 2.503 0 0 0-2.5 2.5v8.334c0 1.378 1.121 2.5 2.5 2.5h11.666c1.379 0 2.5-1.122 2.5-2.5V8.333c0-1.378-1.121-2.5-2.5-2.5Z"
    fill="#fff" />
</svg>