<svg fill="none" xmlns="http://www.w3.org/2000/svg" viewBox="0 0 24 25">
  <rect y=".5" width="24" height="24" rx="12" fill="#1F8B48" />
  <path fill-rule="evenodd" clip-rule="evenodd"
    d="M12 11.666c-.69 0-1.25-.56-1.25-1.25 0-.689.56-1.25 1.25-1.25s1.25.561 1.25 1.25c0 .69-.56 1.25-1.25 1.25ZM12 7.5a2.92 2.92 0 0 0-2.917 2.916A2.92 2.92 0 0 0 12 13.333a2.92 2.92 0 0 0 2.917-2.917A2.92 2.92 0 0 0 12 7.5Zm0 11.372c-1.396-1.32-5-5.026-5-8.104 0-2.72 2.242-4.935 5-4.935s5 2.214 5 4.935c0 3.078-3.604 6.784-5 8.104Zm0-14.705c-3.676 0-6.667 2.96-6.667 6.601 0 4.563 5.874 9.65 6.124 9.864a.832.832 0 0 0 1.085 0c.25-.215 6.125-5.301 6.125-9.864 0-3.64-2.991-6.601-6.667-6.601Z"
    fill="#fff" />
</svg>