<svg fill="none" xmlns="http://www.w3.org/2000/svg" viewBox="0 0 24 25">
  <rect y=".5" width="24" height="24" rx="12" fill="#1F8B48" />
  <path fill-rule="evenodd" clip-rule="evenodd"
    d="M7.5 5.833A2.169 2.169 0 0 0 5.333 8c0 6.157 5.01 11.167 11.167 11.167a2.17 2.17 0 0 0 2.15-2.44l-3.85-.884c-.077.147-.162.306-.238.454-.38.726-.655 1.252-1.357.97-2.755-.967-5.004-3.217-5.983-6.005-.298-.655.269-.951.987-1.326.146-.077.304-.16.448-.234L7.773 5.85a2.17 2.17 0 0 0-.273-.018Zm9 15C9.423 20.833 3.667 15.077 3.667 8a3.837 3.837 0 0 1 5.076-3.627c.27.094.475.322.539.602l1.14 4.97a.831.831 0 0 1-.21.763c-.114.119-.116.121-1.15.662a8.29 8.29 0 0 0 4.066 4.07c.542-1.035.545-1.038.664-1.152a.841.841 0 0 1 .763-.21l4.97 1.14c.28.065.508.268.6.539A3.794 3.794 0 0 1 20.333 17a3.838 3.838 0 0 1-3.832 3.833Z"
    fill="#fff" />
</svg>